<?xml version="1.0" standalone="no"?>
<!DOCTYPE svg PUBLIC "-//W3C//DTD SVG 20010904//EN"
 "http://www.w3.org/TR/2001/REC-SVG-20010904/DTD/svg10.dtd">
<svg version="1.0" xmlns="http://www.w3.org/2000/svg"
 width="30" height="30" viewBox="0 0 1119.000000 1280.000000"
 preserveAspectRatio="xMidYMid meet">
<metadata>
Created by potrace 1.15, written by Peter Selinger 2001-2017
</metadata>
<g transform="translate(0.000000,1280.000000) scale(0.100000,-0.100000)"
fill="blue" stroke="none">
<path d="M11135 12761 c-11 -10 -141 -108 -290 -217 -1922 -1415 -3188 -2504
-4311 -3709 -1326 -1424 -2474 -3093 -3539 -5148 l-97 -188 -50 83 c-28 46
-127 214 -220 373 -316 541 -477 757 -794 1065 -168 163 -539 481 -547 469 -1
-2 -291 -437 -645 -966 -582 -872 -641 -963 -620 -967 171 -32 300 -77 417
-145 298 -175 567 -456 895 -936 217 -318 366 -564 806 -1335 454 -796 658
-1137 670 -1123 5 4 65 141 135 303 1386 3212 2688 5659 4037 7585 1020 1457
2106 2731 3911 4588 154 158 275 287 270 287 -5 0 -17 -8 -28 -19z"/>
</g>
</svg>
